<svg xmlns="http://www.w3.org/2000/svg" xmlns:xlink="http://www.w3.org/1999/xlink" width="699.5" height="501.5" viewBox="0 0 699.5 501.5"><defs><style>.a{fill:#fff;}.b{fill:#00252e;}.c{fill:#e1e8ee;}.d{fill:#d8d8d8;}.e{fill:url(#e);}.f{fill:#a7b9c8;}.g{fill:url(#f);}.h{fill:url(#g);}.i{filter:url(#j);}.j{filter:url(#h);}.k{filter:url(#c);}.l{filter:url(#a);}</style><filter id="a" x="0" y="0" width="663.52" height="422.667" filterUnits="userSpaceOnUse"><feOffset input="SourceAlpha"/><feGaussianBlur stdDeviation="3.5" result="b"/><feFlood flood-color="#00252e" flood-opacity="0.18"/><feComposite operator="in" in2="b"/><feComposite in="SourceGraphic"/></filter><filter id="c" x="0" y="0" width="663.52" height="63.844" filterUnits="userSpaceOnUse"><feOffset input="SourceAlpha"/><feGaussianBlur stdDeviation="3.5" result="d"/><feFlood flood-color="#00252e" flood-opacity="0.18"/><feComposite operator="in" in2="d"/><feComposite in="SourceGraphic"/></filter><linearGradient id="e" x1="0.148" y1="-0.224" x2="0.76" y2="1.194" gradientUnits="objectBoundingBox"><stop offset="0" stop-color="#fad961"/><stop offset="1" stop-color="#ff52c1"/></linearGradient><linearGradient id="f" x1="0.5" x2="0.5" y2="1" gradientUnits="objectBoundingBox"><stop offset="0" stop-color="#00c7fa"/><stop offset="1" stop-color="#007dfa"/></linearGradient><linearGradient id="g" x1="0.29" x2="0.902" y2="1.112" gradientUnits="objectBoundingBox"><stop offset="0" stop-color="#ff52c1"/><stop offset="1" stop-color="#9952ff"/></linearGradient><filter id="h" x="467.327" y="140.744" width="232.173" height="360.756" filterUnits="userSpaceOnUse"><feOffset input="SourceAlpha"/><feGaussianBlur stdDeviation="3" result="i"/><feFlood flood-color="#00252e" flood-opacity="0.18"/><feComposite operator="in" in2="i"/><feComposite in="SourceGraphic"/></filter><filter id="j" x="467.327" y="140.744" width="232.173" height="54.561" filterUnits="userSpaceOnUse"><feOffset input="SourceAlpha"/><feGaussianBlur stdDeviation="3" result="k"/><feFlood flood-color="#00252e" flood-opacity="0.18"/><feComposite operator="in" in2="k"/><feComposite in="SourceGraphic"/></filter></defs><g transform="translate(10.5 10.5)"><g class="l" transform="matrix(1, 0, 0, 1, -10.5, -10.5)"><rect class="a" width="642.52" height="401.667" rx="13.386" transform="translate(10.5 10.5)"/></g><g class="k" transform="matrix(1, 0, 0, 1, -10.5, -10.5)"><path class="b" d="M13.386,0H629.134A13.386,13.386,0,0,1,642.52,13.386V42.844a0,0,0,0,1,0,0H0a0,0,0,0,1,0,0V13.386A13.386,13.386,0,0,1,13.386,0Z" transform="translate(10.5 10.5)"/></g><rect class="c" width="133.858" height="16.067" rx="3.346" transform="translate(48.189 13.389)"/><g transform="translate(578.268 14.728)"><rect class="d" width="21.417" height="2.678" rx="1.339"/><rect class="d" width="21.417" height="2.678" rx="1.339" transform="translate(0 5.356)"/><rect class="d" width="21.417" height="2.678" rx="1.339" transform="translate(0 10.711)"/></g><g transform="translate(48.189 92.383)"><ellipse class="e" cx="32.126" cy="32.133" rx="32.126" ry="32.133" transform="translate(0 0)"/><g transform="translate(101.732 8.033)"><rect class="c" width="76.969" height="10.711" rx="2.008"/><rect class="c" width="267.717" height="5.356" rx="2.008" transform="translate(0 21.422)"/><rect class="c" width="245.407" height="5.356" rx="2.008" transform="translate(0 32.133)"/><rect class="c" width="223.097" height="5.356" rx="2.008" transform="translate(0 42.844)"/></g><g transform="translate(401.575 24.1)"><ellipse class="f" cx="8.031" cy="8.033" rx="8.031" ry="8.033" transform="translate(0 0)"/><ellipse class="f" cx="8.031" cy="8.033" rx="8.031" ry="8.033" transform="translate(42.835 0)"/><ellipse class="f" cx="8.031" cy="8.033" rx="8.031" ry="8.033" transform="translate(21.417 0)"/><ellipse class="f" cx="8.031" cy="8.033" rx="8.031" ry="8.033" transform="translate(64.252 0)"/><ellipse class="f" cx="8.031" cy="8.033" rx="8.031" ry="8.033" transform="translate(85.669 0)"/></g></g><g transform="translate(48.189 183.428)"><ellipse class="g" cx="30.118" cy="30.125" rx="30.118" ry="30.125" transform="translate(0 0)"/><g transform="translate(99.724 6.025)"><rect class="c" width="76.969" height="10.711" rx="2.008"/><rect class="c" width="267.717" height="5.356" rx="2.008" transform="translate(0 21.422)"/><rect class="c" width="245.407" height="5.356" rx="2.008" transform="translate(0 32.133)"/><rect class="c" width="223.097" height="5.356" rx="2.008" transform="translate(0 42.844)"/></g><g transform="translate(399.567 22.092)"><ellipse class="f" cx="8.031" cy="8.033" rx="8.031" ry="8.033" transform="translate(0 0)"/><ellipse class="f" cx="8.031" cy="8.033" rx="8.031" ry="8.033" transform="translate(42.835 0)"/><ellipse class="f" cx="8.031" cy="8.033" rx="8.031" ry="8.033" transform="translate(21.417 0)"/></g></g><g transform="translate(48.189 279.158)"><ellipse class="h" cx="30.118" cy="30.125" rx="30.118" ry="30.125" transform="translate(0 0)"/><g transform="translate(99.724 6.025)"><rect class="c" width="76.969" height="10.711" rx="2.008"/><rect class="c" width="267.717" height="5.356" rx="2.008" transform="translate(0 21.422)"/><rect class="c" width="245.407" height="5.356" rx="2.008" transform="translate(0 32.133)"/><rect class="c" width="223.097" height="5.356" rx="2.008" transform="translate(0 42.844)"/></g><g transform="translate(399.567 22.092)"><ellipse class="f" cx="8.031" cy="8.033" rx="8.031" ry="8.033" transform="translate(0 0)"/><ellipse class="f" cx="8.031" cy="8.033" rx="8.031" ry="8.033" transform="translate(42.835 0)"/><ellipse class="f" cx="8.031" cy="8.033" rx="8.031" ry="8.033" transform="translate(21.417 0)"/><ellipse class="f" cx="8.031" cy="8.033" rx="8.031" ry="8.033" transform="translate(64.252 0)"/></g></g><g transform="translate(465.827 139.244)"><g class="j" transform="matrix(1, 0, 0, 1, -476.33, -149.74)"><rect class="a" width="214.173" height="342.756" rx="11.423" transform="translate(476.33 149.74)"/></g><g class="i" transform="matrix(1, 0, 0, 1, -476.33, -149.74)"><path class="b" d="M11.423,0H202.751a11.423,11.423,0,0,1,11.423,11.423V36.561a0,0,0,0,1,0,0H0a0,0,0,0,1,0,0V11.423A11.423,11.423,0,0,1,11.423,0Z" transform="translate(476.33 149.74)"/></g><g transform="translate(21.507 12.568)"><rect class="c" width="69.606" height="13.71" rx="2.856"/><g transform="translate(151.545 1.143)"><rect class="d" width="18.276" height="2.285" rx="1.142"/><rect class="d" width="18.276" height="2.285" rx="1.142" transform="translate(0 4.57)"/><rect class="d" width="18.276" height="2.285" rx="1.142" transform="translate(0 9.14)"/></g></g><g transform="translate(21.417 72.3)"><ellipse class="e" cx="10.039" cy="10.042" rx="10.039" ry="10.042" transform="translate(0 0)"/><g transform="translate(30.787 2.008)"><rect class="c" width="38.484" height="3.57" rx="0.615"/><rect class="c" width="133.858" height="1.785" rx="0.615" transform="translate(0 7.141)"/><rect class="c" width="122.703" height="1.785" rx="0.615" transform="translate(0 10.711)"/><rect class="c" width="111.549" height="1.785" rx="0.615" transform="translate(0 14.281)"/></g></g><g transform="translate(21.417 164.683)"><ellipse class="e" cx="10.039" cy="10.042" rx="10.039" ry="10.042" transform="translate(0 0)"/><g transform="translate(30.787 2.008)"><rect class="c" width="38.484" height="3.57" rx="0.615"/><rect class="c" width="133.858" height="1.785" rx="0.615" transform="translate(0 7.141)"/><rect class="c" width="122.703" height="1.785" rx="0.615" transform="translate(0 10.711)"/><rect class="c" width="111.549" height="1.785" rx="0.615" transform="translate(0 14.281)"/></g></g><g transform="translate(21.417 103.094)"><g transform="translate(30.787 2.008)"><rect class="c" width="38.484" height="3.57" rx="0.615"/><rect class="c" width="133.858" height="1.785" rx="0.615" transform="translate(0 7.141)"/><rect class="c" width="122.703" height="1.785" rx="0.615" transform="translate(0 10.711)"/><rect class="c" width="111.549" height="1.785" rx="0.615" transform="translate(0 14.281)"/></g><ellipse class="g" cx="10.039" cy="10.042" rx="10.039" ry="10.042" transform="translate(0 0)"/></g><g transform="translate(21.417 195.478)"><g transform="translate(30.787 2.008)"><rect class="c" width="38.484" height="3.57" rx="0.615"/><rect class="c" width="133.858" height="1.785" rx="0.615" transform="translate(0 7.141)"/><rect class="c" width="122.703" height="1.785" rx="0.615" transform="translate(0 10.711)"/><rect class="c" width="111.549" height="1.785" rx="0.615" transform="translate(0 14.281)"/></g><ellipse class="g" cx="10.039" cy="10.042" rx="10.039" ry="10.042" transform="translate(0 0)"/></g><g transform="translate(21.417 133.889)"><g transform="translate(30.787 2.008)"><rect class="c" width="38.484" height="3.57" rx="0.615"/><rect class="c" width="133.858" height="1.785" rx="0.615" transform="translate(0 7.141)"/><rect class="c" width="122.703" height="1.785" rx="0.615" transform="translate(0 10.711)"/><rect class="c" width="111.549" height="1.785" rx="0.615" transform="translate(0 14.281)"/></g><ellipse class="h" cx="10.039" cy="10.042" rx="10.039" ry="10.042" transform="translate(0 0)"/></g><g transform="translate(21.417 226.272)"><g transform="translate(30.787 2.008)"><rect class="c" width="38.484" height="3.57" rx="0.615"/><rect class="c" width="133.858" height="1.785" rx="0.615" transform="translate(0 7.141)"/><rect class="c" width="122.703" height="1.785" rx="0.615" transform="translate(0 10.711)"/><rect class="c" width="111.549" height="1.785" rx="0.615" transform="translate(0 14.281)"/></g><ellipse class="h" cx="10.039" cy="10.042" rx="10.039" ry="10.042" transform="translate(0 0)"/></g><g transform="translate(21.417 257.067)"><ellipse class="e" cx="10.039" cy="10.042" rx="10.039" ry="10.042" transform="translate(0 0)"/><g transform="translate(30.787 2.008)"><rect class="c" width="38.484" height="3.57" rx="0.615"/><rect class="c" width="133.858" height="1.785" rx="0.615" transform="translate(0 7.141)"/><rect class="c" width="122.703" height="1.785" rx="0.615" transform="translate(0 10.711)"/><rect class="c" width="111.549" height="1.785" rx="0.615" transform="translate(0 14.281)"/></g></g><g transform="translate(21.417 287.861)"><g transform="translate(30.787 2.008)"><rect class="c" width="38.484" height="3.57" rx="0.615"/><rect class="c" width="133.858" height="1.785" rx="0.615" transform="translate(0 7.141)"/><rect class="c" width="122.703" height="1.785" rx="0.615" transform="translate(0 10.711)"/><rect class="c" width="111.549" height="1.785" rx="0.615" transform="translate(0 14.281)"/></g><ellipse class="g" cx="10.039" cy="10.042" rx="10.039" ry="10.042" transform="translate(0 0)"/></g></g></g></svg>