<svg xmlns="http://www.w3.org/2000/svg" width="14.588" height="14.588" viewBox="0 0 14.588 14.588"><defs><style>.a{fill:#fff;}</style></defs><path class="a" d="M10.029,0H4.559A4.559,4.559,0,0,0,0,4.559v5.471a4.559,4.559,0,0,0,4.559,4.559h5.471a4.559,4.559,0,0,0,4.559-4.559V4.559A4.559,4.559,0,0,0,10.029,0Zm3.191,10.029a3.2,3.2,0,0,1-3.191,3.191H4.559a3.2,3.2,0,0,1-3.191-3.191V4.559A3.2,3.2,0,0,1,4.559,1.368h5.471a3.2,3.2,0,0,1,3.191,3.191Z"/><path class="a" d="M7.294,3.647a3.647,3.647,0,1,0,3.647,3.647A3.647,3.647,0,0,0,7.294,3.647Zm0,5.926A2.279,2.279,0,1,1,9.574,7.294,2.283,2.283,0,0,1,7.294,9.574Z"/><circle class="a" cx="0.486" cy="0.486" r="0.486" transform="translate(10.729 2.888)"/></svg>