<svg xmlns="http://www.w3.org/2000/svg" width="24" height="24" viewBox="0 0 24 24"><defs><style>.a{fill:none;}.b{fill:#fff;}</style></defs><rect class="a" width="24" height="24"/><g transform="translate(3 3)"><path class="b" d="M17,18A16.892,16.892,0,0,1,4.975,13.025,16.892,16.892,0,0,1,0,1,.947.947,0,0,1,1,0H4.5a.947.947,0,0,1,1,1A13.336,13.336,0,0,0,6,4.5a.8.8,0,0,1-.2,1L3.6,7.7a15.572,15.572,0,0,0,6.6,6.6l2.2-2.2a1.4,1.4,0,0,1,.741-.239.818.818,0,0,1,.259.039,11.361,11.361,0,0,0,3.6.6.947.947,0,0,1,1,1V17A.947.947,0,0,1,17,18Zm1-9H16A6.926,6.926,0,0,0,9,2V0a8.962,8.962,0,0,1,9,9ZM14,9H12A2.934,2.934,0,0,0,9,6V4a4.947,4.947,0,0,1,5,5Z"/></g></svg>